name 900045_2.mot																																																																																																																																												
datacolumns 141																																																																																																																																												
datarows 5																																																																																																																																												
range 1.25 1.2833333																																																																																																																																												
endheader																																																																																																																																												

                time	           pelvis_tx	           pelvis_ty	           pelvis_tz	         pelvis_tilt	         pelvis_list	     pelvis_rotation	       hip_flexion_r	     hip_adduction_r	      hip_rotation_r	        knee_angle_r	       ankle_angle_r	    subtalar_angle_r	         mtp_angle_r	       hip_flexion_l	     hip_adduction_l	      hip_rotation_l	        knee_angle_l	       ankle_angle_l	    subtalar_angle_l	         mtp_angle_l	    lumbar_extension	      lumbar_bending	     lumbar_rotation	    ground_marker_px	    ground_marker_py	    ground_marker_pz	    ground_marker_px	    ground_marker_py	    ground_marker_pz	    ground_marker_px	    ground_marker_py	    ground_marker_pz	    ground_marker_px	    ground_marker_py	    ground_marker_pz	    ground_marker_px	    ground_marker_py	    ground_marker_pz	    ground_marker_px	    ground_marker_py	    ground_marker_pz	    ground_marker_px	    ground_marker_py	    ground_marker_pz	    ground_marker_px	    ground_marker_py	    ground_marker_pz	    ground_marker_px	    ground_marker_py	    ground_marker_pz	    ground_marker_px	    ground_marker_py	    ground_marker_pz	    ground_marker_px	    ground_marker_py	    ground_marker_pz	    ground_marker_px	    ground_marker_py	    ground_marker_pz	    ground_marker_px	    ground_marker_py	    ground_marker_pz	    ground_marker_px	    ground_marker_py	    ground_marker_pz	    ground_marker_px	    ground_marker_py	    ground_marker_pz	    ground_marker_px	    ground_marker_py	    ground_marker_pz	    ground_marker_px	    ground_marker_py	    ground_marker_pz	    ground_marker_px	    ground_marker_py	    ground_marker_pz	    ground_marker_px	    ground_marker_py	    ground_marker_pz	    ground_marker_px	    ground_marker_py	    ground_marker_pz	    ground_marker_px	    ground_marker_py	    ground_marker_pz	    ground_marker_px	    ground_marker_py	    ground_marker_pz	    ground_marker_px	    ground_marker_py	    ground_marker_pz	    ground_marker_px	    ground_marker_py	    ground_marker_pz	    ground_marker_px	    ground_marker_py	    ground_marker_pz	    ground_marker_px	    ground_marker_py	    ground_marker_pz	    ground_marker_px	    ground_marker_py	    ground_marker_pz	    ground_marker_px	    ground_marker_py	    ground_marker_pz	    ground_marker_px	    ground_marker_py	    ground_marker_pz	    ground_marker_px	    ground_marker_py	    ground_marker_pz	    ground_marker_px	    ground_marker_py	    ground_marker_pz	    ground_marker_px	    ground_marker_py	    ground_marker_pz	    ground_marker_px	    ground_marker_py	    ground_marker_pz	    ground_marker_px	    ground_marker_py	    ground_marker_pz	    ground_marker_px	    ground_marker_py	    ground_marker_pz	    ground_marker_px	    ground_marker_py	    ground_marker_pz	    ground_marker_px	    ground_marker_py	    ground_marker_pz	    ground_marker_px	    ground_marker_py	    ground_marker_pz	    ground_marker_px	    ground_marker_py	    ground_marker_pz
1.25	1.56577063	0.9598245	-0.24596985	-5.40451431	2.08135033	-1.89154816	2.20431519	-7.76272202	11.06287193	-0.97151333	5.14645576	0	0	-0.41539955	-2.11212349	5.26966763	-1.19288909	6.75154066	0	0	2.15062404	1.63663161	-4.30553722	1.47164643	0.88158351	-0.25190106	1.4684608	0.87972093	-0.17677698	1.47483206	0.8834461	-0.32702515	1.44323993	0.46984988	-0.13214834	1.43239343	0.46106628	-0.35499513	1.40562141	0.06970749	-0.12865721	1.38284194	0.07129895	-0.36504701	1.56577063	0.9598245	-0.24596985	1.5607214	0.95687234	-0.12689963	1.57081985	0.96277666	-0.36504006	1.38119376	1.01780391	-0.22049458	1.38764381	1.0168891	-0.30684385	1.45246136	0.47554195	-0.07466083	1.44034839	0.4640663	-0.41236863	1.4273001	0.47655496	-0.18374066	1.42751122	0.46536106	-0.30132133	1.39109159	0.0713983	-0.09142787	1.36505973	0.07445109	-0.39961368	1.41555846	0.08373493	-0.15820295	1.39130795	0.08372302	-0.33704743	1.34277713	0.04256698	-0.14390446	1.31763077	0.0430031	-0.35219857	1.48789883	1.37037599	-0.23425123	1.56996393	1.20660734	-0.24443118	1.3747927	1.43668056	-0.23910299	1.49775016	1.35962605	-0.18215741	1.51053822	1.36494565	-0.28913933	1.52570713	0.03943539	-0.09947064	1.50055671	0.04112575	-0.40179414	1.50645125	0.59135503	-0.00960221	1.59655952	0.55310291	-0.34166411	1.5224545	0.65087235	-0.08245949	1.53495383	0.61863577	-0.38134351	1.51365018	0.56357223	-0.09714092	1.50828886	0.53535569	-0.38560852	1.41791403	0.20496887	-0.00556712	1.40609324	0.21191631	-0.47932759	1.4061892	0.17167871	-0.07811876	1.38556898	0.17379779	-0.41043407
1.25833333	1.56577134	0.95986617	-0.24604198	-5.38857651	2.08177161	-1.9077915	2.20529366	-7.76262236	11.03404236	-1.00000477	5.15194988	0	0	-0.43037605	-2.10678935	5.23522472	-1.20047534	6.75742483	0	0	2.1120851	1.64792347	-4.2803154	1.47166967	0.88159966	-0.25199276	1.46846414	0.87974203	-0.17686941	1.47487533	0.88345724	-0.32711613	1.44334757	0.46986347	-0.13221583	1.43244565	0.46107751	-0.35502946	1.40567148	0.06969262	-0.12862559	1.38285732	0.07129441	-0.36506048	1.56577134	0.95986617	-0.24604198	1.56069243	0.95692301	-0.12701771	1.57085025	0.96280932	-0.36506626	1.38114369	1.0177927	-0.22061096	1.38766122	1.01688325	-0.30686066	1.45252264	0.47556481	-0.07472181	1.44038093	0.46407214	-0.41240594	1.42788732	0.47636479	-0.18414353	1.42734599	0.46570489	-0.30127025	1.39111209	0.07139728	-0.09140842	1.36506343	0.07444756	-0.39962113	1.41551244	0.08374851	-0.15816347	1.3913182	0.08365422	-0.33705667	1.34278047	0.04254662	-0.14387549	1.31762671	0.04301599	-0.35218999	1.48783481	1.37033296	-0.23426628	1.56983733	1.2065357	-0.24448806	1.37476671	1.43668115	-0.23916242	1.4976939	1.35957193	-0.18219915	1.51045978	1.3649025	-0.28913605	1.52572203	0.03940858	-0.09949198	1.50053823	0.04112329	-0.40179801	1.50647664	0.5913474	-0.00960869	1.59658384	0.55310631	-0.34166119	1.52242661	0.65087134	-0.08247913	1.53513932	0.61875665	-0.38143668	1.51386642	0.56343257	-0.09731147	1.50826156	0.53535831	-0.38561815	1.41791844	0.20495176	-0.00557299	1.40607035	0.21191898	-0.47934669	1.40588558	0.1716637	-0.07817836	1.38556969	0.1736785	-0.41040275
1.26666665	1.56578159	0.95994353	-0.24612644	-5.3613739	2.08260083	-1.92822409	2.19190216	-7.76275206	11.00469112	-1.02449012	5.15548277	0	0	-0.46712112	-2.09681749	5.21122932	-1.19201005	6.75673103	0	0	2.08844233	1.60501301	-4.22565222	1.47171819	0.8816328	-0.25210238	1.4684875	0.87978071	-0.17697996	1.47494888	0.88348496	-0.32722482	1.44344759	0.46987101	-0.13229689	1.4324472	0.4610838	-0.35505223	1.40572274	0.0696811	-0.12859169	1.38286054	0.07128531	-0.36506513	1.56578159	0.95994353	-0.24612644	1.56066501	0.95701021	-0.12715177	1.57089806	0.9628768	-0.3651011	1.38105345	1.01779592	-0.22072273	1.38768482	1.01687145	-0.30687255	1.45257235	0.47558162	-0.07479578	1.44037688	0.46406591	-0.41243017	1.42814529	0.47623199	-0.1840948	1.42734754	0.46590725	-0.30113748	1.39113128	0.07140105	-0.09138777	1.36506391	0.07443696	-0.39962444	1.41561341	0.08374851	-0.15813689	1.39136076	0.08365633	-0.33713907	1.34278703	0.04252329	-0.1438431	1.31761253	0.04300328	-0.3521665	1.48783863	1.37031174	-0.23419887	1.56984615	1.20651221	-0.24434732	1.37467289	1.43671751	-0.23922765	1.4977355	1.35959291	-0.18215451	1.51042521	1.36483896	-0.2890546	1.52571929	0.03939679	-0.09948444	1.50050652	0.04112478	-0.40181041	1.50650382	0.5913344	-0.00960858	1.59662902	0.55312508	-0.34169647	1.52246416	0.65096194	-0.0825141	1.53525305	0.61879307	-0.38148344	1.51398385	0.56340605	-0.09729149	1.50828815	0.53540528	-0.38558295	1.41794896	0.20494664	-0.00558171	1.40604055	0.211926	-0.47939271	1.40576494	0.17168668	-0.07815774	1.38552773	0.17351061	-0.4103547
1.27499998	1.56579423	0.96003157	-0.2462154	-5.33062363	2.08609462	-1.9447372	2.16921902	-7.76788521	10.98275185	-1.0395602	5.15570974	0	0	-0.51508045	-2.08090591	5.20718479	-1.16863906	6.74877834	0	0	2.10030723	1.50941181	-4.23315096	1.47177386	0.88167131	-0.25221673	1.46852207	0.87981957	-0.17709522	1.47502553	0.88352311	-0.32733825	1.44351923	0.46986976	-0.13237362	1.43239141	0.46109244	-0.35506541	1.40576553	0.06967063	-0.12855482	1.38285267	0.07127517	-0.36506605	1.56579423	0.96003157	-0.2462154	1.56064677	0.95710015	-0.12729451	1.57094181	0.96296299	-0.3651363	1.38094258	1.01781058	-0.22082579	1.38769078	1.01685977	-0.30688909	1.45260537	0.47558901	-0.07486722	1.44033206	0.46405709	-0.41244271	1.42813659	0.47614339	-0.1839191	1.4276228	0.46574479	-0.30098876	1.39114952	0.07140438	-0.09136118	1.36506319	0.07442259	-0.39962947	1.41572082	0.08381802	-0.15806736	1.3914789	0.0837098	-0.33724111	1.3427881	0.04250028	-0.14380953	1.31759691	0.04297528	-0.35214388	1.48781598	1.37034965	-0.23421173	1.56993437	1.20658696	-0.24405228	1.37460959	1.43666053	-0.23929574	1.49770689	1.3597281	-0.18218793	1.51041996	1.36479604	-0.28900808	1.52571416	0.03938606	-0.09943203	1.50047255	0.04113168	-0.40182334	1.50653088	0.5913167	-0.00960251	1.59669542	0.55315387	-0.34176421	1.52249169	0.65099156	-0.08251217	1.53513074	0.61876863	-0.38147333	1.51399457	0.56335849	-0.09721705	1.50834191	0.5354495	-0.38553801	1.41800714	0.20495185	-0.00559443	1.40600777	0.21193689	-0.47944823	1.40597916	0.17174888	-0.07804612	1.38553977	0.17346531	-0.41034535
1.2833333	1.56579137	0.96010482	-0.24629939	-5.30547142	2.09313369	-1.95844817	2.15026188	-7.77942944	10.98195934	-1.04719806	5.15369987	0	0	-0.55717564	-2.06097889	5.2107029	-1.14282703	6.73818827	0	0	2.08292913	1.52198684	-4.28606176	1.47180617	0.88170433	-0.25232923	1.46853542	0.87984771	-0.17720866	1.47507691	0.88356096	-0.3274498	1.44355643	0.46985844	-0.13243082	1.43231153	0.46110749	-0.35507476	1.40579152	0.06966396	-0.1285235	1.38283658	0.07126275	-0.36507109	1.56579137	0.96010482	-0.24629939	1.56061602	0.95716703	-0.127437	1.5709666	0.96304256	-0.36516178	1.38082933	1.01783001	-0.22091277	1.38769436	1.01684618	-0.30690488	1.45262694	0.47558668	-0.07492288	1.44026875	0.46405387	-0.4124507	1.4282217	0.47627312	-0.18423378	1.42778385	0.46565306	-0.30088827	1.39116585	0.07140723	-0.09133412	1.36505783	0.07440545	-0.39964047	1.4156816	0.08388124	-0.15806679	1.39163578	0.08377805	-0.337322	1.34278631	0.04248997	-0.14379373	1.31759226	0.04296017	-0.35213172	1.48777986	1.37034094	-0.23429909	1.56992435	1.20658779	-0.24408028	1.3745563	1.43663406	-0.23933649	1.49761212	1.35970914	-0.18228398	1.51044738	1.36480141	-0.28905189	1.52572107	0.03936376	-0.09935547	1.50043499	0.04114172	-0.40183297	1.50655973	0.59130347	-0.00959782	1.59677231	0.55318677	-0.34185061	1.52248704	0.65093255	-0.08247601	1.53505397	0.61875367	-0.38149065	1.5140363	0.56338286	-0.09734631	1.50834167	0.53546059	-0.38553181	1.41807556	0.20496394	-0.00560825	1.40598238	0.21194792	-0.47949815	1.40608943	0.17173474	-0.0780367	1.3856262	0.17357451	-0.41036394
